<svg width="16" height="16" viewBox="0 0 16 16" fill="none" xmlns="http://www.w3.org/2000/svg">
<path d="M15.5 5C15.5 4.00544 15.1049 3.05161 14.4017 2.34835C13.6984 1.64509 12.7446 1.25 11.75 1.25C10.125 1.25 8.525 2.3 8 3.75C7.475 2.275 5.875 1.25 4.25 1.25C3.27252 1.24965 2.33354 1.63098 1.63309 2.31276C0.932632 2.99454 0.526066 3.92287 0.5 4.9V5C0.500735 5.38172 0.559748 5.76109 0.675 6.125C1.525 9.3 5.35 12.525 8 14.75C10.65 12.55 14.45 9.075 15.3 6.15C15.3544 5.97828 15.3962 5.80281 15.425 5.625V5.55C15.4539 5.37638 15.4706 5.20095 15.475 5.025L15.5 5Z" fill="white"/>
</svg>
