<svg width="10" height="10" viewBox="0 0 10 10" fill="none" xmlns="http://www.w3.org/2000/svg">
<path d="M9.93851 3.40225C9.91933 3.35711 9.8873 3.3186 9.84641 3.29153C9.80551 3.26446 9.75756 3.25001 9.70851 3.25H6.65901L5.22651 0.185745C5.20638 0.142658 5.17438 0.106206 5.13426 0.0806682C5.09414 0.05513 5.04757 0.0415649 5.00001 0.0415649C4.95245 0.0415649 4.90588 0.05513 4.86576 0.0806682C4.82564 0.106206 4.79364 0.142658 4.77351 0.185745L3.34101 3.25H0.29151C0.242455 3.24999 0.194484 3.26442 0.153571 3.29149C0.112659 3.31855 0.0806121 3.35706 0.0614237 3.4022C0.0422352 3.44735 0.0367527 3.49714 0.0456588 3.54538C0.054565 3.59362 0.0774662 3.63818 0.11151 3.6735L2.36976 6.0155L1.46176 9.6475C1.44994 9.695 1.45233 9.74493 1.46863 9.79109C1.48493 9.83726 1.51442 9.87762 1.55345 9.90717C1.59248 9.93672 1.63933 9.95416 1.68818 9.95733C1.73703 9.9605 1.78574 9.94926 1.82826 9.925L5.00001 8.113L8.17176 9.9255C8.21423 9.94997 8.26298 9.96137 8.3119 9.95825C8.36082 9.95514 8.40773 9.93766 8.44676 9.908C8.48582 9.8784 8.51531 9.83797 8.53158 9.79174C8.54785 9.74552 8.55017 9.69553 8.53826 9.64799L7.63026 6.0155L9.88826 3.67375C9.92228 3.63842 9.94516 3.59387 9.95405 3.54564C9.96294 3.49741 9.95745 3.44763 9.93826 3.4025L9.93851 3.40225Z" fill="#CCCCCC"/>
</svg>
